<?xml version="1.0" standalone="no"?>
<!DOCTYPE svg PUBLIC "-//W3C//DTD SVG 20010904//EN"
 "http://www.w3.org/TR/2001/REC-SVG-20010904/DTD/svg10.dtd">
<svg version="1.0" xmlns="http://www.w3.org/2000/svg"
 width="1500.000000pt" height="1500.000000pt" viewBox="0 0 1500.000000 1500.000000"
 preserveAspectRatio="xMidYMid meet">
<metadata>
Created by potrace 1.14, written by Peter Selinger 2001-2017
</metadata>
<g transform="translate(0.000000,1500.000000) scale(0.100000,-0.100000)"
fill="#000000" stroke="none">
<path d="M0 7500 l0 -7500 7500 0 7500 0 0 7500 0 7500 -7500 0 -7500 0 0
-7500z m7411 3438 c73 -202 136 -364 140 -360 4 4 33 79 64 167 32 88 61 163
64 167 3 4 69 -166 146 -377 77 -211 143 -381 146 -377 3 4 32 80 64 170 32
90 61 164 64 166 4 3 2275 -6219 2389 -6544 2 -6 -708 -10 -1922 -10 l-1926 0
0 140 0 140 1725 0 c949 0 1725 1 1725 3 0 12 -35 104 -43 115 -7 9 -403 12
-1918 12 l-1909 0 0 77 c0 42 -2 74 -5 71 -3 -3 -50 -128 -105 -278 -55 -150
-101 -275 -103 -277 -2 -2 -69 -2 -149 -1 l-144 3 142 390 c79 215 143 398
143 408 1 15 -10 17 -99 17 l-99 0 -3 75 -3 75 -101 -278 -100 -277 -152 -3
-152 -3 39 108 c21 60 490 1348 1041 2863 551 1515 1008 2771 1015 2790 11 33
8 46 -53 213 -36 98 -68 173 -72 167 -4 -6 -474 -1298 -1046 -2870 l-1039
-2860 -152 0 -152 0 33 93 c40 107 2344 6445 2352 6467 5 13 6 13 13 0 5 -8
69 -180 142 -382z"/>
<path d="M6693 7380 l-850 -2341 135 3 136 3 784 2157 784 2157 -62 173 c-35
95 -66 176 -69 180 -4 4 -390 -1045 -858 -2332z"/>
<path d="M7120 6999 c-388 -1067 -706 -1944 -708 -1949 -2 -7 511 -10 1418
-10 l1421 0 -7 23 c-23 74 -1410 3877 -1414 3877 -3 0 -322 -873 -710 -1941z"/>
<path d="M6306 4752 c-4 -7 -46 -115 -46 -119 0 -2 768 -3 1706 -3 l1705 0 -7
23 c-4 12 -15 41 -25 65 l-18 42 -1655 0 c-910 0 -1657 -3 -1660 -8z"/>
</g>
</svg>
