<?xml version="1.0" standalone="no"?>
<!DOCTYPE svg PUBLIC "-//W3C//DTD SVG 20010904//EN"
 "http://www.w3.org/TR/2001/REC-SVG-20010904/DTD/svg10.dtd">
<svg version="1.0" xmlns="http://www.w3.org/2000/svg"
 width="1109.000000pt" height="1109.000000pt" viewBox="0 0 1109.000000 1109.000000"
 preserveAspectRatio="xMidYMid meet">
<metadata>
Created by potrace 1.14, written by Peter Selinger 2001-2017
</metadata>
<g transform="translate(0.000000,1109.000000) scale(0.100000,-0.100000)"
fill="#000000" stroke="none">
<path d="M1042 7459 c-71 -188 -1037 -2850 -1040 -2866 -4 -22 -1 -23 60 -23
l64 0 459 1263 c252 694 461 1266 465 1270 9 11 63 -141 57 -162 -3 -9 -210
-581 -461 -1270 -251 -690 -456 -1261 -456 -1268 0 -9 17 -13 59 -13 l59 0 16
43 c9 23 29 78 45 122 25 68 30 76 33 50 l3 -30 853 -3 c505 -1 852 -6 852
-11 0 -5 3 -16 6 -25 6 -15 -65 -16 -760 -16 l-766 0 0 -65 0 -65 855 0 c470
0 855 2 855 4 0 5 -906 2490 -990 2716 -34 91 -65 169 -69 173 -4 4 -18 -24
-32 -62 -13 -39 -27 -67 -31 -63 -3 4 -32 76 -63 161 -30 85 -58 157 -60 159
-2 3 -8 -6 -13 -19z m196 -849 c29 -80 196 -540 372 -1024 177 -483 319 -880
317 -882 -2 -2 -341 -3 -754 -2 l-750 3 376 1032 c206 568 378 1029 382 1025
3 -4 29 -72 57 -152z"/>
<path d="M4020 7390 c-193 -15 -364 -73 -490 -168 -153 -115 -264 -322 -319
-597 -37 -183 -43 -323 -38 -810 5 -492 11 -560 68 -765 123 -439 410 -640
911 -640 214 0 383 35 521 107 122 64 265 219 339 368 46 90 46 91 -12 120
-29 15 -54 25 -55 23 -2 -2 -13 -25 -24 -51 -63 -146 -206 -304 -328 -363
-123 -60 -228 -78 -453 -78 -221 -1 -302 14 -428 78 -221 113 -340 311 -398
661 -22 131 -32 925 -14 1115 31 335 101 530 240 670 166 166 326 217 657 207
293 -8 409 -50 558 -201 72 -73 100 -111 139 -186 27 -52 51 -97 53 -99 5 -7
103 42 103 51 0 16 -72 153 -111 209 -47 69 -140 165 -203 208 -105 73 -268
125 -421 136 -163 11 -202 12 -295 5z"/>
<path d="M6458 7390 c-306 -23 -508 -132 -658 -354 -69 -103 -139 -315 -169
-514 -29 -193 -40 -692 -21 -1005 42 -683 264 -1008 748 -1091 46 -8 85 -16
87 -18 3 -2 9 -49 15 -104 27 -242 95 -420 195 -512 105 -96 248 -150 438
-167 l77 -7 0 60 0 59 -72 7 c-221 21 -370 109 -443 260 -43 90 -75 245 -82
402 l-6 121 -99 7 c-294 20 -497 148 -613 384 -75 153 -111 339 -126 657 -13
259 -5 710 16 887 53 449 222 692 545 780 75 20 107 23 280 23 157 0 209 -4
265 -18 239 -63 411 -225 490 -459 74 -223 88 -390 82 -968 -4 -405 -7 -467
-25 -565 -42 -221 -116 -400 -212 -507 -27 -31 -50 -60 -50 -65 1 -4 16 -26
35 -48 l34 -40 42 40 c111 107 209 310 254 525 64 304 72 1068 15 1406 -55
322 -174 549 -351 670 -130 88 -264 136 -424 149 -138 11 -171 12 -267 5z"/>
<path d="M8253 6358 c3 -870 6 -1005 21 -1088 94 -537 306 -780 737 -845 184
-28 403 -14 564 35 196 61 351 194 449 388 34 67 81 208 101 303 46 214 47
248 52 1247 l5 952 -796 0 -796 0 0 -60 0 -60 735 0 735 0 0 -742 c0 -409 -5
-831 -10 -938 -20 -417 -93 -654 -249 -810 -159 -159 -354 -220 -656 -207
-210 10 -355 60 -477 164 -147 126 -225 288 -275 574 -14 82 -16 223 -20 1087
l-4 992 -60 0 -60 0 4 -992z"/>
<path d="M10970 5900 l0 -1450 60 0 60 0 0 1450 0 1450 -60 0 -60 0 0 -1450z"/>
</g>
</svg>
