<?xml version="1.0" standalone="no"?>
<!DOCTYPE svg PUBLIC "-//W3C//DTD SVG 20010904//EN"
 "http://www.w3.org/TR/2001/REC-SVG-20010904/DTD/svg10.dtd">
<svg version="1.0" xmlns="http://www.w3.org/2000/svg"
 width="301.000000pt" height="301.000000pt" viewBox="0 0 301.000000 301.000000"
 preserveAspectRatio="xMidYMid meet">
<metadata>
Created by potrace 1.14, written by Peter Selinger 2001-2017
</metadata>
<g transform="translate(0.000000,301.000000) scale(0.100000,-0.100000)"
fill="#000000" stroke="none">
<path d="M1431 2450 c-6 -14 -26 -68 -45 -120 -19 -52 -68 -187 -109 -300 -41
-113 -81 -224 -89 -248 -8 -23 -18 -39 -23 -35 -4 5 -6 3 -2 -3 3 -5 -17 -73
-45 -150 -27 -76 -54 -154 -60 -172 -5 -18 -13 -30 -18 -27 -6 3 -8 0 -5 -7 3
-7 -4 -38 -15 -68 -12 -30 -53 -143 -91 -250 -39 -107 -77 -207 -84 -222 l-13
-28 42 0 43 0 25 68 c50 129 82 217 85 227 3 13 28 82 44 120 7 17 13 35 15
40 16 63 92 254 99 248 4 -5 5 -3 2 3 -8 14 50 186 66 196 7 4 9 8 5 8 -4 0 8
42 26 93 86 240 149 412 153 416 5 6 14 -5 17 -21 2 -7 7 -22 11 -32 5 -12 3
-36 -7 -63 -8 -23 -12 -40 -7 -37 5 3 6 -2 3 -10 -3 -9 -10 -13 -15 -10 -5 3
-8 2 -7 -3 1 -4 -2 -18 -6 -31 -6 -17 -3 -27 11 -38 17 -14 17 -14 -4 -5 -25
13 -28 9 -38 -39 -4 -19 -12 -40 -17 -47 -5 -7 -6 -18 -2 -25 5 -7 10 -22 11
-33 2 -16 1 -17 -6 -5 -5 8 -7 18 -5 22 3 4 1 8 -4 8 -5 0 -12 -9 -15 -20 -3
-11 -1 -18 4 -14 5 3 9 0 9 -5 0 -6 -6 -11 -14 -11 -8 0 -16 -7 -20 -15 -3 -8
-1 -15 4 -15 6 0 9 -10 9 -22 -1 -18 -2 -19 -6 -5 -2 9 -9 15 -14 11 -5 -3 -7
-10 -3 -15 3 -5 1 -16 -5 -23 -9 -10 -8 -15 3 -19 8 -3 17 1 19 9 4 10 5 9 3
-2 0 -10 -10 -18 -23 -19 -25 -2 -45 -15 -23 -15 10 0 10 -3 1 -14 -7 -8 -20
-37 -31 -65 -18 -49 -18 -50 1 -56 10 -4 19 -11 19 -17 0 -6 -7 -5 -16 3 -14
11 -18 10 -30 -6 -13 -17 -12 -20 3 -27 15 -5 14 -7 -5 -7 -19 -1 -22 -5 -17
-21 3 -11 3 -20 -2 -20 -7 0 -28 -56 -39 -100 -2 -10 -17 -47 -37 -89 -16 -36
-17 -45 -6 -52 13 -8 6 -13 -13 -10 -5 0 -8 -6 -8 -14 0 -8 5 -15 12 -15 6 0
8 -3 5 -6 -4 -4 -13 -1 -21 5 -12 10 -13 9 -9 -8 3 -12 0 -27 -6 -35 -9 -11
-9 -15 1 -19 8 -3 5 -6 -6 -6 -11 -1 -17 -4 -13 -7 3 -3 -3 -26 -14 -52 -16
-36 -17 -47 -7 -54 12 -7 4 -12 -14 -9 -5 0 -8 -6 -8 -14 0 -23 -2 -29 -18
-45 -10 -9 -11 -15 -3 -18 6 -2 10 -13 10 -25 -1 -17 -2 -18 -6 -4 -2 9 -9 15
-14 11 -5 -3 -7 -10 -4 -15 4 -5 -1 -19 -9 -31 -19 -27 -21 -41 -3 -33 6 4 4
0 -5 -8 -10 -8 -19 -24 -21 -35 -2 -12 -6 -25 -10 -28 -12 -12 -8 -24 9 -24 8
0 13 4 9 9 -3 5 0 13 6 17 8 4 9 3 5 -5 -9 -14 22 -27 35 -14 6 6 11 20 12 32
1 11 5 21 9 21 4 0 7 3 6 8 0 4 3 16 7 26 6 13 4 21 -3 24 -7 2 -12 9 -12 15
0 6 11 0 24 -12 l25 -23 469 1 c336 1 472 -1 477 -9 4 -6 5 -13 3 -16 -9 -8
-93 -12 -103 -4 -18 14 -55 -7 -49 -27 5 -15 4 -15 -4 -3 -6 8 -9 17 -6 21 2
4 -5 7 -16 6 -11 -1 -19 -6 -16 -13 2 -6 0 -17 -5 -25 -8 -12 -10 -12 -8 1 4
36 -1 41 -33 38 -27 -2 -32 -7 -30 -23 2 -16 1 -17 -7 -5 -5 8 -8 17 -5 21 2
4 -5 7 -16 6 -11 -1 -19 -6 -16 -13 2 -6 0 -17 -5 -25 -8 -12 -10 -12 -8 1 4
36 -1 41 -33 38 -27 -2 -32 -7 -30 -23 2 -16 1 -17 -7 -5 -5 8 -8 17 -6 20 2
4 -12 7 -31 8 -27 1 -37 -3 -45 -21 l-10 -22 5 22 c3 16 -1 21 -15 20 -14 -1
-18 -7 -14 -22 4 -17 3 -17 -6 2 -16 32 -66 32 -80 1 -9 -23 -9 -23 -5 -1 3
16 -1 21 -16 20 -13 -1 -18 -7 -15 -18 3 -12 0 -16 -9 -12 -7 2 -10 11 -7 19
4 12 -9 14 -81 10 -47 -2 -88 0 -91 4 -3 5 -15 6 -27 2 -12 -3 -19 -1 -15 4 3
5 -3 10 -14 10 -19 0 -19 -1 -3 -13 11 -8 13 -13 5 -13 -7 0 -9 -5 -5 -11 4
-7 1 -10 -6 -7 -7 2 -14 12 -16 22 -1 10 -6 21 -10 24 -4 4 -4 -1 -1 -10 4
-10 2 -18 -3 -18 -6 0 -10 -5 -10 -11 0 -5 4 -8 9 -4 6 3 15 -3 20 -14 13 -24
14 -42 2 -22 -5 8 -20 16 -32 18 -23 3 -23 3 -5 -10 19 -14 19 -15 -3 -26 -12
-7 -20 -19 -17 -26 2 -7 -2 -19 -10 -25 -8 -7 -14 -20 -13 -29 0 -11 3 -9 9 6
9 23 30 32 30 13 0 -5 -5 -10 -12 -10 -9 0 -9 -3 -1 -11 15 -15 56 7 49 26 -3
8 -1 17 5 20 5 4 8 12 7 18 -1 7 4 23 12 37 7 14 13 26 12 28 -8 11 1 20 18
19 11 -1 20 -5 20 -10 0 -5 -6 -7 -14 -4 -9 4 -13 -2 -13 -17 0 -20 5 -23 39
-24 24 -1 37 2 33 8 -3 6 -1 10 4 10 6 0 11 -4 11 -9 0 -5 180 -9 413 -9 347
0 414 2 414 14 0 16 -13 19 -20 4 -3 -6 -4 -5 -3 2 2 7 9 13 17 13 8 0 13 -6
11 -13 -1 -7 6 -15 15 -19 19 -7 33 -22 33 -37 0 -4 -7 -5 -16 -2 -9 3 -12 2
-9 -5 4 -6 14 -8 22 -5 11 5 13 2 9 -9 -3 -9 -2 -13 4 -10 6 3 10 0 10 -7 0
-17 -37 -21 -46 -6 -4 7 -2 8 4 4 7 -4 12 -2 12 3 0 6 -6 11 -14 11 -8 0 -17
7 -20 16 -6 16 -8 16 -24 0 -24 -21 -38 -21 -21 1 10 14 8 13 -10 -2 -23 -19
-24 -19 -17 -1 5 15 4 17 -8 7 -10 -8 -16 -9 -21 -1 -4 7 -12 7 -26 0 -14 -8
-19 -7 -19 2 0 9 -3 9 -9 -1 -6 -9 -6 -22 0 -32 5 -10 5 -20 0 -23 -14 -9 -31
40 -18 53 9 9 8 11 -5 6 -18 -7 -22 -17 -18 -44 1 -13 -1 -13 -14 -2 -13 11
-14 17 -5 28 7 7 9 16 5 20 -3 3 -6 1 -6 -6 0 -7 -4 -10 -8 -7 -4 2 -14 1 -22
-4 -10 -6 -21 -3 -32 7 -10 9 -18 11 -18 5 0 -11 -18 -11 -37 1 -9 6 -11 3 -6
-10 3 -10 3 -15 -2 -11 -4 4 -16 3 -25 -2 -13 -7 -21 -5 -30 5 -6 7 -23 13
-38 11 -15 -1 -33 2 -41 8 -11 8 -13 8 -7 -1 4 -7 3 -13 -3 -13 -5 0 -13 5
-16 10 -4 7 -12 7 -25 0 -13 -7 -20 -6 -23 3 -2 6 -4 -5 -4 -25 1 -31 5 -38
22 -38 18 1 19 1 3 11 -10 5 -18 15 -18 22 0 8 4 6 11 -3 9 -13 10 -13 6 2 -4
12 0 16 14 15 15 -1 19 -7 16 -23 -2 -12 2 -21 10 -21 7 0 13 5 13 10 0 5 7 4
15 -3 16 -14 36 -5 29 13 -3 8 4 13 17 14 17 2 19 -1 10 -10 -6 -6 -11 -16
-11 -21 0 -6 5 -4 10 4 6 10 10 11 10 3 0 -7 8 -13 18 -13 13 0 14 2 3 9 -9 6
-10 11 -2 15 6 4 14 0 17 -8 3 -9 16 -15 30 -14 22 2 22 4 7 20 -9 10 -11 18
-5 18 6 0 17 -8 24 -18 8 -10 27 -18 47 -19 19 0 28 3 21 7 -8 5 -9 10 -2 14
6 4 15 -1 20 -11 8 -14 13 -15 25 -5 12 10 16 9 21 -4 4 -11 10 -13 19 -7 6 5
22 8 35 7 12 0 22 4 22 10 0 6 5 4 11 -4 8 -12 9 -11 5 6 -5 15 -2 21 9 21 9
0 14 -6 11 -13 -7 -18 12 -28 28 -15 10 9 15 8 20 -5 4 -11 10 -13 19 -7 6 6
41 9 77 8 36 -2 58 0 50 4 -8 3 -16 13 -17 21 -4 38 -14 65 -23 68 -7 3 -7 9
1 18 7 8 7 14 1 14 -13 0 -25 -26 -31 -65 -2 -10 -30 34 -31 47 0 4 6 5 14 2
8 -3 19 3 25 15 15 27 14 34 -3 28 -22 -9 -28 5 -8 20 16 12 16 14 0 23 -9 6
-15 17 -12 24 3 8 0 17 -5 21 -6 3 -9 11 -5 16 3 5 0 17 -8 26 -7 9 -13 26
-13 37 0 14 -6 20 -18 18 -9 -2 -17 2 -17 8 0 5 6 10 13 10 6 1 1 8 -13 16
l-25 15 24 -5 c17 -3 21 -2 13 6 -6 6 -30 11 -54 11 -24 0 -37 2 -30 4 14 5
16 30 2 35 -5 2 -11 15 -12 31 -1 15 -6 27 -10 27 -4 0 -4 7 -1 17 4 11 3 14
-5 9 -8 -5 -10 -1 -5 10 5 13 3 15 -7 9 -9 -5 -11 -4 -6 3 5 8 0 12 -13 12
-25 0 -31 10 -20 35 l9 20 -3 -20 c-2 -14 6 -23 28 -30 16 -6 29 -17 27 -24
-1 -7 2 -9 9 -5 8 4 9 0 4 -15 -4 -14 -2 -21 7 -21 10 0 9 -3 -2 -10 -8 -5
-10 -10 -4 -10 5 0 15 5 21 11 8 8 11 4 10 -15 -2 -19 -6 -25 -17 -21 -11 4
-10 1 2 -8 10 -8 15 -17 11 -20 -3 -4 -1 -7 6 -7 8 0 11 6 7 16 -4 12 -2 15 9
11 8 -4 17 -1 21 5 4 7 3 8 -4 4 -7 -4 -12 -1 -12 8 0 26 -2 30 -19 43 -8 6
-16 25 -17 42 -2 39 -23 91 -36 91 -6 0 -6 -6 1 -14 7 -8 8 -17 3 -20 -5 -3
-14 6 -20 19 -11 25 -6 31 22 26 5 -1 4 5 -4 13 -7 9 -9 16 -5 16 4 0 2 7 -5
15 -6 8 -8 20 -4 26 4 7 3 9 -3 6 -12 -8 -26 20 -17 34 3 5 -2 12 -10 15 -9 3
-13 10 -10 15 3 5 -1 9 -8 9 -10 0 -9 3 2 11 13 9 12 10 -2 5 -10 -3 -20 -1
-23 4 -6 9 8 14 28 11 5 -1 5 3 2 9 -5 8 -14 6 -31 -4 -28 -19 -40 -21 -26 -3
7 8 7 18 2 27 -10 16 -4 30 11 30 6 0 8 -4 5 -8 -2 -4 -1 -14 3 -21 6 -9 11
-10 15 -2 4 6 1 11 -6 11 -9 0 -9 3 2 10 11 7 11 10 2 10 -7 0 -10 4 -7 10 3
6 -1 7 -9 4 -9 -3 -16 -1 -16 5 0 6 5 11 11 11 8 0 9 4 0 13 -6 8 -7 17 -3 21
4 4 1 6 -7 4 -7 -2 -16 3 -19 11 -2 8 0 11 5 8 5 -3 10 0 10 8 0 8 -4 15 -9
15 -4 0 -8 -5 -8 -11 0 -6 -7 -3 -16 5 -8 9 -24 21 -35 27 -11 5 -16 15 -13
21 5 8 0 9 -16 5 -16 -4 -20 -3 -12 5 14 14 50 1 62 -23 13 -24 30 -25 30 -1
0 12 -3 13 -8 5 -5 -9 -11 -6 -21 9 -11 18 -11 20 2 15 18 -7 17 14 -2 37 -7
9 -10 16 -6 16 4 0 2 6 -4 13 -6 8 -8 16 -5 20 3 3 1 14 -5 24 -6 11 -11 13
-11 5 0 -7 -5 -10 -10 -7 -8 5 -7 11 1 21 9 11 8 14 -2 15 -21 2 -22 2 -49 -6
-17 -4 -21 -3 -12 3 12 8 11 15 -2 40 -16 31 -8 50 16 36 7 -4 8 -3 4 4 -4 7
-2 12 3 12 6 0 11 5 11 11 0 5 -4 7 -10 4 -5 -3 -10 -2 -10 4 0 5 3 11 8 14 4
2 1 2 -7 0 -8 -2 -11 2 -7 12 3 9 2 14 -3 10 -5 -3 -11 1 -14 7 -4 10 -7 10
-18 0 -12 -11 -12 -13 0 -10 7 2 16 -3 19 -11 2 -8 0 -11 -6 -7 -6 3 -14 1
-18 -5 -5 -8 -3 -9 7 -4 8 5 11 5 7 0 -4 -4 -3 -14 3 -22 7 -8 8 -13 1 -13
-13 0 -25 28 -26 60 -1 14 -9 31 -19 38 -9 7 -15 18 -11 23 7 12 -15 71 -30
81 -11 8 -10 9 32 13 22 2 28 -5 15 -18 -3 -4 -13 -1 -22 6 -14 11 -14 10 -2
-5 7 -10 10 -18 6 -18 -4 0 -1 -7 6 -16 17 -21 20 -44 6 -44 -7 -1 0 -8 16
-16 15 -8 32 -12 37 -9 6 3 10 1 10 -6 0 -7 2 -10 5 -7 3 3 1 16 -4 29 -7 17
-10 19 -10 7 -1 -10 -6 -18 -12 -18 -5 0 -7 5 -4 10 3 6 0 13 -9 16 -14 5 -14
32 0 56 4 7 3 8 -4 4 -8 -4 -10 4 -7 25 3 24 1 29 -8 20 -8 -8 -14 -6 -22 8
-7 15 -14 18 -25 11 -12 -8 -12 -10 5 -10 15 0 16 -3 7 -12 -15 -15 -22 -8
-28 27 -4 25 -3 27 11 15 10 -8 15 -9 15 -1 0 6 -4 12 -10 12 -5 1 -16 2 -22
3 -7 0 -14 7 -14 14 -1 6 -2 16 -3 22 0 5 -9 7 -18 3 -15 -5 -16 -3 -5 8 16
18 15 29 -4 29 -9 0 -12 -5 -8 -12 4 -7 4 -10 -1 -6 -4 4 -14 3 -22 -4 -11 -8
-12 -7 -7 5 3 9 14 19 25 22 17 6 18 9 4 34 -8 16 -11 31 -8 35 4 3 -1 6 -10
6 -8 0 -17 -10 -19 -22 -3 -24 -28 -38 -28 -16 0 8 -13 50 -29 94 -27 74 -30
77 -40 54z m123 -155 c3 -8 1 -15 -4 -15 -6 0 -10 7 -10 15 0 8 2 15 4 15 2 0
6 -7 10 -15z m16 -105 c0 -5 -5 -10 -11 -10 -5 0 -7 5 -4 10 3 6 8 10 11 10 2
0 4 -4 4 -10z m37 -27 c0 -7 -4 -13 -8 -13 -4 0 -9 6 -12 13 -3 8 0 14 7 14 7
0 13 -6 13 -14z m-123 -51 c3 -5 -1 -9 -9 -9 -8 0 -12 4 -9 9 3 4 7 8 9 8 2 0
6 -4 9 -8z m6 -58 c0 -17 -16 -19 -26 -2 -5 7 -3 8 6 3 10 -6 12 -4 7 9 -4 10
-3 15 3 11 6 -3 10 -13 10 -21z m200 16 c0 -5 -2 -10 -4 -10 -3 0 -8 5 -11 10
-3 6 -1 10 4 10 6 0 11 -4 11 -10z m-160 -62 c8 -24 14 -46 14 -50 1 -3 4 -10
9 -14 10 -11 9 -24 -4 -24 -5 0 -7 5 -4 10 3 6 1 10 -4 10 -13 0 -13 -3 -5
-24 3 -9 10 -14 14 -11 9 5 22 -11 27 -30 1 -5 25 -71 53 -145 28 -74 52 -143
53 -152 1 -10 4 -18 8 -18 4 0 11 -17 17 -37 5 -21 29 -89 52 -151 22 -61 38
-117 34 -124 -4 -6 -3 -8 2 -5 6 3 23 -29 38 -71 15 -42 43 -119 62 -171 19
-51 32 -96 29 -99 -4 -4 -497 -6 -735 -2 -14 0 -41 -2 -60 -3 -19 -2 -43 0
-52 5 -12 6 -18 3 -21 -12 -4 -17 -4 -16 -3 2 1 16 6 22 18 20 20 -3 25 5 33
46 4 23 1 34 -12 41 -10 6 -12 11 -5 11 6 0 12 5 12 11 0 5 -4 8 -9 4 -5 -3
-12 -1 -15 4 -4 5 2 8 11 7 10 -2 18 -11 18 -21 0 -32 21 -27 23 6 2 19 -1 28
-8 24 -6 -3 -13 1 -16 9 -3 9 -11 13 -17 9 -6 -4 -7 -1 -2 7 7 11 10 10 19 -1
14 -18 38 -18 44 0 3 9 0 11 -9 7 -8 -4 -6 -1 4 7 21 18 22 31 1 23 -8 -3 -12
-2 -9 4 3 6 13 10 21 10 8 0 12 5 9 10 -3 6 -2 10 3 10 5 0 9 6 9 13 1 18 7
41 14 47 11 10 58 148 52 154 -11 11 -24 6 -17 -6 5 -7 3 -8 -6 -3 -10 6 -7
12 11 26 13 10 27 19 32 19 4 0 7 5 7 11 0 5 -6 7 -12 4 -7 -4 -4 1 7 10 17
14 18 17 5 25 -12 8 -12 10 4 10 11 0 16 3 13 7 -4 3 -2 12 4 19 6 8 9 21 5
29 -3 9 -2 13 4 10 6 -3 11 -1 11 4 3 20 5 26 18 49 7 13 10 26 7 29 -3 4 0
13 7 21 10 13 9 15 -3 8 -8 -4 -6 0 4 8 21 17 27 34 27 81 0 22 3 25 9 15 11
-17 11 -16 14 20 1 14 10 38 20 53 10 15 16 30 13 33 -3 3 6 31 20 62 17 39
22 63 17 81 -4 14 -6 32 -5 38 1 8 -5 10 -16 7 -15 -5 -15 -4 -3 4 16 12 31 6
29 -11 -3 -24 1 -40 9 -33 4 4 7 11 7 14 2 18 17 52 24 52 4 0 14 -19 21 -42z
m130 -12 c0 -2 -7 -7 -16 -10 -8 -3 -12 -2 -9 4 6 10 25 14 25 6z m-237 -31
c-3 -10 -1 -15 7 -13 7 2 15 -4 17 -12 4 -12 3 -12 -5 -2 -5 8 -13 13 -18 12
-5 0 -10 6 -12 14 -2 9 1 16 7 16 6 0 8 -7 4 -15z m247 5 c0 -5 -4 -10 -10
-10 -5 0 -10 5 -10 10 0 6 5 10 10 10 6 0 10 -4 10 -10z m75 -58 c-8 -8 -25
10 -19 20 4 6 9 5 15 -3 4 -7 6 -15 4 -17z m-320 8 c-3 -5 -1 -10 6 -10 7 0
10 -3 6 -6 -9 -9 -28 6 -22 17 4 5 8 9 11 9 3 0 2 -4 -1 -10z m271 -12 c4 -7
3 -8 -4 -4 -8 5 -12 -1 -13 -16 0 -13 -3 -17 -6 -10 -5 13 2 42 11 42 3 0 8
-5 12 -12z m-276 -18 c12 -7 10 -9 -8 -7 -12 0 -22 5 -22 9 0 11 12 10 30 -2z
m285 -9 c3 -5 2 -12 -3 -15 -5 -3 -9 1 -9 9 0 17 3 19 12 6z m19 -36 c3 -8 1
-15 -4 -15 -6 0 -10 7 -10 15 0 8 2 15 4 15 2 0 6 -7 10 -15z m-317 -24 c0
-11 -5 -18 -9 -15 -4 3 -5 11 -1 19 7 21 12 19 10 -4z m378 -21 c-6 -19 3 -25
28 -21 5 1 6 -8 2 -19 -4 -12 -2 -20 5 -20 6 0 9 -4 5 -9 -3 -5 1 -16 10 -24
13 -13 13 -16 -2 -21 -20 -8 -60 17 -60 38 0 8 7 18 15 21 11 4 12 8 2 20 -7
8 -17 12 -23 8 -6 -3 -7 -1 -3 5 4 7 2 12 -4 12 -6 0 -15 -10 -21 -22 -10 -23
-10 -23 -5 -1 2 14 -2 23 -13 26 -9 2 -6 3 7 2 12 -1 25 2 28 7 3 4 10 6 15 3
5 -4 9 -1 9 4 0 6 3 11 6 11 3 0 2 -9 -1 -20z m-403 -27 c-3 -16 -7 -22 -10
-15 -4 13 4 42 11 42 2 0 2 -12 -1 -27z m408 -17 c0 -2 -9 -6 -20 -9 -11 -3
-20 -1 -20 4 0 5 9 9 20 9 11 0 20 -2 20 -4z m-53 -38 c-3 -8 -6 -5 -6 6 -1
11 2 17 5 13 3 -3 4 -12 1 -19z m33 -33 c0 -5 -5 -3 -10 5 -5 8 -10 20 -10 25
0 6 5 3 10 -5 5 -8 10 -19 10 -25z m-420 -5 c-6 -11 -16 -17 -22 -14 -7 5 -9
1 -5 -9 3 -10 2 -17 -4 -17 -6 0 -9 7 -7 16 2 8 7 14 11 12 5 -2 13 5 18 15
14 24 22 21 9 -3z m508 -87 c27 -35 35 -73 19 -89 -3 -4 -2 -15 4 -25 6 -13 6
-19 -1 -19 -9 0 -15 21 -11 43 0 4 -4 7 -10 7 -5 0 -8 4 -4 9 3 5 1 12 -5 16
-6 4 -8 11 -5 16 4 5 1 9 -5 9 -6 0 -10 6 -8 13 1 6 -3 22 -10 35 -20 35 4 26
36 -15z m-558 12 c-1 -5 7 -13 17 -17 17 -7 17 -8 0 -5 -10 1 -17 6 -17 11 1
5 -4 13 -12 18 -11 8 -11 9 0 6 8 -2 13 -8 12 -13z m490 -11 c0 -8 -19 -13
-24 -6 -3 5 1 9 9 9 8 0 15 -2 15 -3z m-484 -31 c-6 -6 -36 9 -36 18 0 5 9 4
20 -3 10 -7 18 -14 16 -15z m502 13 c-7 -8 -15 -12 -17 -11 -5 6 10 25 20 25
5 0 4 -6 -3 -14z m5 -33 c-4 -11 -3 -14 5 -9 8 5 10 1 5 -10 -4 -12 -3 -15 5
-10 7 4 12 5 12 2 0 -3 -4 -7 -9 -11 -12 -7 -34 32 -26 45 10 16 15 11 8 -7z
m-548 -13 c3 -5 1 -10 -4 -10 -6 0 -11 5 -11 10 0 6 2 10 4 10 3 0 8 -4 11
-10z m556 -63 c-10 -9 -11 -8 -5 6 3 10 9 15 12 12 3 -3 0 -11 -7 -18z m-573
-23 c0 -17 -3 -22 -8 -13 -5 6 -6 18 -3 26 8 19 11 16 11 -13z m605 5 c-8 -8
-13 -7 -18 2 -5 8 -4 10 3 5 7 -4 12 -2 12 5 0 7 3 9 7 6 4 -4 2 -12 -4 -18z
m82 -50 c4 -11 11 -16 17 -13 7 4 8 2 4 -4 -4 -6 -2 -20 4 -31 7 -14 7 -22 -2
-27 -6 -4 -8 -3 -4 4 4 6 -3 9 -18 8 -20 -3 -23 1 -21 21 1 14 -4 27 -11 30
-20 8 -17 23 4 17 16 -5 16 -5 0 9 -10 8 -15 17 -11 20 9 9 31 -11 38 -34z
m-710 10 c-5 -16 -4 -19 5 -14 9 6 11 4 5 -4 -10 -18 -27 2 -19 22 9 25 17 21
9 -4z m655 1 c0 -5 -2 -10 -4 -10 -3 0 -8 5 -11 10 -3 6 -1 10 4 10 6 0 11 -4
11 -10z m13 -45 c-3 -9 -8 -14 -10 -11 -3 3 -2 9 2 15 9 16 15 13 8 -4z m-669
-55 c-6 -6 -15 -5 -24 1 -13 9 -12 10 3 5 9 -3 17 0 17 6 0 6 3 8 7 5 4 -4 2
-12 -3 -17z m741 -1 c-5 9 -3 12 5 9 19 -6 21 -36 4 -42 -13 -5 -13 -10 1 -35
8 -16 20 -33 26 -37 8 -4 9 -3 5 4 -4 7 -2 12 3 12 6 0 11 -6 11 -14 0 -8 3
-23 6 -33 5 -16 4 -16 -8 -2 -7 9 -23 21 -36 28 -12 7 -20 17 -16 23 4 5 1 14
-6 18 -7 4 -12 19 -12 34 0 14 -4 24 -7 22 -4 -3 -8 5 -8 16 -2 20 -1 20 19 2
12 -11 18 -13 13 -5z m-65 7 c0 -2 -7 -7 -16 -10 -8 -3 -12 -2 -9 4 6 10 25
14 25 6z m-694 -34 c1 -7 0 -8 -3 -2 -7 14 -24 13 -20 -2 1 -6 -7 -13 -18 -15
l-20 -3 20 9 c11 5 16 10 12 10 -5 1 -5 6 -2 12 8 13 28 7 31 -9z m698 3 c-4
-8 -8 -15 -10 -15 -2 0 -4 7 -4 15 0 8 4 15 10 15 5 0 7 -7 4 -15z m26 -9 c0
-3 -4 -8 -10 -11 -5 -3 -10 -1 -10 4 0 6 5 11 10 11 6 0 10 -2 10 -4z m-763
-42 c-3 -3 -12 -4 -19 -1 -8 3 -5 6 6 6 11 1 17 -2 13 -5z m760 -9 c0 -8 -4
-12 -9 -9 -5 3 -6 10 -3 15 9 13 12 11 12 -6z m-757 -35 c0 -5 -4 -10 -10 -10
-5 0 -10 5 -10 10 0 6 5 10 10 10 6 0 10 -4 10 -10z m809 -70 c11 -22 10 -23
-2 -8 -8 10 -17 15 -21 11 -4 -4 -4 1 0 10 7 20 7 20 23 -13z m-829 15 c0 -7
-30 -13 -34 -7 -3 4 4 9 15 9 10 1 19 0 19 -2z m-30 -45 c0 -5 -2 -10 -4 -10
-3 0 -8 5 -11 10 -3 6 -1 10 4 10 6 0 11 -4 11 -10z m885 -40 c3 -6 -1 -7 -9
-4 -18 7 -21 14 -7 14 6 0 13 -4 16 -10z m-4 -62 c-10 -11 -11 -9 -5 6 6 15 4
17 -6 11 -9 -6 -11 -4 -5 4 5 9 10 10 18 2 8 -8 7 -14 -2 -23z m68 25 c-4 -22
2 -33 14 -27 9 6 9 4 -1 -8 -10 -13 -10 -17 4 -22 9 -3 20 -4 24 -1 5 3 7 -3
5 -12 -1 -10 4 -26 12 -35 8 -9 12 -21 9 -27 -4 -5 -2 -12 4 -16 5 -3 10 -12
10 -18 0 -8 -2 -9 -8 -1 -8 13 -44 15 -36 2 3 -5 10 -5 16 -2 7 5 9 1 5 -9 -4
-11 -2 -14 7 -11 7 3 19 -3 27 -12 8 -10 9 -15 3 -11 -7 4 -14 1 -17 -6 -7
-19 8 -41 22 -33 7 5 9 1 5 -8 -7 -19 -24 -21 -24 -3 0 7 -7 4 -15 -7 -8 -11
-15 -15 -15 -10 0 6 5 15 10 20 8 8 6 15 -5 24 -8 7 -15 24 -15 38 0 20 -3 23
-12 14 -15 -15 -28 -16 -28 -2 0 6 3 9 8 9 19 -3 23 2 12 16 -15 18 -35 20
-24 3 5 -7 3 -8 -5 -3 -9 5 -10 10 -2 18 7 7 15 6 26 -3 8 -7 15 -9 15 -4 -1
14 -26 44 -32 38 -4 -3 -9 0 -14 7 -4 8 -3 10 4 5 8 -5 11 1 10 18 -1 15 -8
26 -16 26 -7 0 -10 -4 -7 -10 4 -6 -1 -7 -12 -3 -16 6 -16 5 -4 -10 7 -9 9
-17 3 -17 -22 0 -20 29 4 45 20 13 23 19 14 30 -10 12 -7 17 18 24 1 1 1 -2 1
-6z m-39 -37 c0 -2 -7 -7 -16 -10 -8 -3 -12 -2 -9 4 6 10 25 14 25 6z m-940
-26 c0 -5 -2 -10 -4 -10 -3 0 -8 5 -11 10 -3 6 -1 10 4 10 6 0 11 -4 11 -10z
m-30 -20 c-8 -5 -19 -10 -25 -10 -5 0 -3 5 5 10 8 5 20 10 25 10 6 0 3 -5 -5
-10z m990 -40 c0 -5 -7 -7 -15 -4 -8 4 -15 8 -15 10 0 2 7 4 15 4 8 0 15 -4
15 -10z m-1000 -67 c0 -3 -7 -2 -16 1 -12 4 -15 2 -10 -9 3 -8 1 -15 -4 -15
-11 0 -14 23 -4 33 6 6 34 -2 34 -10z m1014 -24 c-2 -4 5 -10 16 -12 18 -4 18
-5 -1 -3 -15 1 -23 9 -26 26 -2 18 -1 21 6 10 5 -8 8 -17 5 -21z m-1051 -16
c-7 -2 -19 -2 -25 0 -7 3 -2 5 12 5 14 0 19 -2 13 -5z m333 -15 c-10 -6 -22
-6 -26 -2 -5 5 3 10 18 11 22 1 24 0 8 -9z m139 2 c3 -5 2 -10 -4 -10 -5 0
-13 5 -16 10 -3 6 -2 10 4 10 5 0 13 -4 16 -10z m121 -13 c1 -9 -2 -17 -8 -17
-6 0 -8 6 -5 14 3 8 2 17 -4 20 -5 2 -4 3 2 2 7 -1 13 -10 15 -19z m74 8 c0
-8 -2 -15 -4 -15 -2 0 -6 7 -10 15 -3 8 -1 15 4 15 6 0 10 -7 10 -15z m120 0
c0 -8 -2 -15 -4 -15 -2 0 -6 7 -10 15 -3 8 -1 15 4 15 6 0 10 -7 10 -15z m149
-1 c3 -4 -2 -4 -12 -1 -15 6 -17 3 -11 -16 8 -25 2 -22 -15 10 -10 20 -9 21
10 18 12 -3 24 -7 28 -11z m81 6 c0 -5 -4 -10 -10 -10 -5 0 -10 5 -10 10 0 6
5 10 10 10 6 0 10 -4 10 -10z m35 -8 c-3 -3 -11 0 -18 7 -9 10 -8 11 6 5 10
-3 15 -9 12 -12z m-827 -6 c-10 -7 -14 -17 -10 -21 4 -5 1 -5 -7 0 -12 7 -11
10 4 22 24 17 36 17 13 -1z m52 4 c0 -5 -8 -10 -17 -10 -15 0 -16 2 -3 10 19
12 20 12 20 0z m80 -10 c0 -5 -4 -10 -10 -10 -5 0 -10 5 -10 10 0 6 5 10 10
10 6 0 10 -4 10 -10z m98 -15 c-3 -3 -9 2 -12 12 -6 14 -5 15 5 6 7 -7 10 -15
7 -18z m277 15 c-3 -5 -1 -10 6 -10 7 0 10 -3 6 -6 -9 -9 -28 6 -22 17 4 5 8
9 11 9 3 0 2 -4 -1 -10z m120 0 c-3 -5 -1 -10 6 -10 7 0 10 -3 6 -6 -9 -9 -28
6 -22 17 4 5 8 9 11 9 3 0 2 -4 -1 -10z m105 -10 c0 -5 -2 -10 -4 -10 -3 0 -8
5 -11 10 -3 6 -1 10 4 10 6 0 11 -4 11 -10z m40 0 c0 -5 -4 -10 -10 -10 -5 0
-10 5 -10 10 0 6 5 10 10 10 6 0 10 -4 10 -10z m-673 -6 c-3 -3 -12 -4 -19 -1
-8 3 -5 6 6 6 11 1 17 -2 13 -5z m-201 -34 c0 -12 -8 -25 -16 -30 -10 -7 -11
-10 -2 -10 17 0 15 -17 -4 -24 -8 -3 -12 -2 -9 4 3 5 1 19 -5 31 -10 17 -8 23
7 35 25 19 30 17 29 -6z m1071 -15 c0 -5 4 -17 7 -26 5 -10 1 -19 -8 -22 -20
-8 -43 30 -28 45 6 6 8 18 4 26 -5 14 -4 14 9 2 9 -8 16 -19 16 -25z m-197
-31 c0 -8 -2 -14 -4 -14 -2 0 -11 -3 -19 -6 -10 -3 -20 3 -27 16 -7 13 -8 20
-3 17 5 -3 15 -2 23 3 17 11 30 4 30 -16z m103 -27 c-8 -13 -23 15 -16 28 4 5
-3 2 -14 -7 -29 -26 -36 -22 -11 7 l22 25 12 -22 c7 -13 10 -27 7 -31z m-451
36 c-10 -4 -10 -8 0 -21 11 -13 10 -14 -8 -4 -12 6 -24 8 -28 5 -3 -3 -6 -2
-6 4 0 14 6 19 32 20 13 0 17 -1 10 -4z m173 -4 c4 -5 15 -5 28 2 21 12 21 11
4 -8 -21 -24 -42 -25 -62 -3 -13 14 -12 16 5 17 11 1 22 -2 25 -8z m-59 -26
c-7 -7 -26 7 -26 19 0 6 6 6 15 -2 9 -7 13 -15 11 -17z"/>
<path d="M1521 1903 c0 -6 -4 -18 -7 -27 -4 -11 -1 -16 11 -16 9 0 13 -5 10
-10 -4 -6 -9 -8 -13 -6 -4 2 -16 -8 -27 -23 -14 -19 -14 -22 -3 -13 15 12 17
11 16 -5 0 -10 1 -24 3 -32 2 -7 -2 -16 -10 -19 -8 -2 -11 0 -8 5 3 5 2 15 -2
22 -6 10 -10 9 -14 -3 -3 -8 -2 -18 3 -21 13 -8 13 -35 -1 -35 -5 0 -8 4 -4 9
3 5 0 13 -7 17 -7 4 -10 4 -6 -1 4 -4 2 -15 -5 -23 -10 -13 -9 -14 2 -8 9 6
12 5 9 -5 -3 -8 -12 -13 -19 -11 -8 2 -11 0 -7 -4 4 -4 2 -14 -5 -23 -11 -14
-10 -14 6 -2 9 7 17 9 17 3 0 -15 -26 -33 -36 -24 -4 4 -3 0 4 -9 10 -14 9
-18 -5 -24 -16 -6 -14 -8 10 -21 15 -8 27 -20 27 -25 0 -7 -10 -5 -24 5 -25
16 -44 7 -31 -14 3 -5 1 -10 -5 -10 -6 0 -8 -5 -4 -11 9 -15 24 10 17 29 -5
12 -3 12 15 1 17 -11 18 -14 6 -27 -8 -7 -11 -18 -8 -23 8 -13 -28 -7 -39 6
-5 6 -7 4 -5 -5 1 -8 -4 -26 -12 -40 -17 -30 -22 -48 -22 -77 0 -13 -4 -20 -9
-17 -5 3 -6 -3 -2 -12 4 -12 3 -15 -5 -10 -8 5 -10 2 -6 -8 3 -9 1 -16 -6 -16
-6 0 -9 -4 -6 -9 3 -5 -1 -14 -9 -21 -12 -10 -13 -16 -4 -26 9 -11 8 -14 -2
-14 -11 0 -11 -2 1 -10 13 -9 7 -14 -12 -11 -4 0 -5 -6 -2 -14 4 -9 1 -15 -7
-15 -10 0 -10 -3 -1 -12 19 -19 14 -32 -5 -17 -16 13 -17 12 -5 -3 8 -10 9
-19 3 -22 -5 -3 -12 0 -15 6 -3 7 -4 4 -3 -8 1 -11 -5 -29 -13 -39 -11 -14
-12 -19 -2 -22 6 -3 12 -9 12 -14 0 -6 -6 -7 -12 -3 -10 6 -10 4 0 -7 19 -21
14 -34 -6 -16 -17 16 -19 16 -19 0 0 -10 5 -24 11 -32 9 -12 8 -13 -7 -8 -16
6 -16 4 -2 -23 21 -40 19 -47 -5 -19 -10 13 -20 22 -20 19 -7 -29 -6 -37 4
-38 6 0 21 -3 34 -6 20 -4 21 -3 11 16 -10 18 -9 20 5 15 9 -4 17 -3 17 1 6
33 5 52 -4 52 -6 0 -7 3 -3 8 4 4 13 7 19 7 6 0 13 14 14 30 1 17 4 39 7 50 2
11 5 22 5 25 1 3 5 -1 10 -8 7 -11 9 -10 14 3 4 9 3 13 -3 10 -6 -3 -10 -2
-10 4 0 5 3 11 8 14 4 2 2 3 -4 1 -6 -1 -11 11 -11 27 0 23 3 26 14 18 7 -6
10 -15 7 -20 -3 -5 0 -9 6 -9 7 0 9 8 5 21 -6 16 -4 20 6 14 8 -5 11 -5 7 0
-4 4 -3 14 3 21 8 10 5 12 -15 8 -24 -4 -25 -3 -14 16 7 11 14 16 16 10 2 -5
11 -10 20 -9 11 0 12 2 4 6 -8 3 -5 11 10 24 l23 20 -26 -15 c-25 -16 -26 -16
-26 13 0 20 4 28 14 24 7 -3 10 -9 7 -14 -3 -5 2 -6 10 -3 9 3 15 9 14 12 0 4
0 9 2 12 1 3 3 18 5 33 3 21 0 27 -12 25 -9 -2 -18 2 -20 9 -3 7 5 10 21 9 13
-2 30 1 38 5 10 7 10 9 -2 10 -8 1 -18 1 -22 0 -4 0 -5 6 -1 15 3 9 9 12 12 7
3 -4 13 -9 21 -11 11 -2 11 1 -2 11 -22 17 -24 31 -3 24 17 -7 30 9 15 18 -6
4 -7 11 -4 17 4 6 10 5 16 -3 8 -11 9 -10 4 3 -3 10 -1 20 3 23 5 2 11 13 14
24 3 15 1 18 -11 14 -10 -4 -13 -2 -8 6 4 6 3 18 -3 25 -8 10 -7 17 5 27 13
11 15 11 14 -2 -5 -33 -1 -42 14 -30 16 14 14 47 -3 43 -14 -3 -11 27 4 44 7
9 14 9 25 1 12 -9 13 -9 3 3 -19 21 -16 35 4 19 10 -8 14 -9 10 -2 -4 6 -3 14
3 18 6 4 8 10 5 15 -7 12 5 41 15 35 5 -3 7 3 5 12 -1 10 3 24 9 32 8 11 8 13
-1 7 -7 -4 -13 -3 -13 3 0 5 3 11 8 14 4 2 1 2 -6 0 -8 -1 -12 3 -9 9 2 7 10
12 16 10 7 -1 10 2 6 8 -5 8 -11 8 -20 0 -10 -8 -14 -7 -18 7 -3 10 -5 13 -6
6z m19 -73 c-10 -7 -11 -10 -2 -10 10 0 10 -4 0 -19 -7 -11 -16 -17 -21 -14
-5 3 -4 9 3 13 10 6 10 9 0 15 -9 6 -9 10 1 16 8 5 19 9 24 9 6 0 3 -5 -5 -10z
m-90 -220 c0 -5 -5 -10 -11 -10 -5 0 -7 5 -4 10 3 6 8 10 11 10 2 0 4 -4 4
-10z m-57 -135 c-9 -19 -20 -32 -25 -29 -7 5 27 64 38 64 2 0 -4 -16 -13 -35z
m-11 -70 c2 3 4 -5 3 -18 -1 -12 -9 -23 -18 -25 -20 -4 -22 9 -5 26 9 9 9 12
0 12 -7 0 -12 5 -12 11 0 8 4 9 13 0 8 -6 16 -9 19 -6z m-53 -98 c-7 -15 -16
-24 -20 -21 -5 3 -1 16 8 29 22 29 27 26 12 -8z m6 -57 c-3 -5 -12 -10 -18
-10 -7 0 -6 4 3 10 19 12 23 12 15 0z m-43 -93 c-7 -8 -8 -18 -4 -22 4 -5 2
-5 -5 -1 -9 5 -11 -4 -9 -33 2 -29 0 -38 -10 -34 -7 2 -10 11 -8 18 3 7 1 16
-5 20 -7 4 -2 19 15 41 15 19 29 32 32 30 3 -3 0 -12 -6 -19z m-32 -148 c0 -5
-9 -9 -21 -9 -11 0 -17 5 -14 10 4 6 12 7 18 3 7 -3 4 3 -5 14 -10 11 -18 24
-18 29 1 11 40 -35 40 -47z"/>
<path d="M1490 1691 c0 -5 5 -13 10 -16 6 -3 10 -2 10 4 0 5 -4 13 -10 16 -5
3 -10 2 -10 -4z"/>
<path d="M1245 1370 c-3 -5 -1 -10 4 -10 6 0 11 5 11 10 0 6 -2 10 -4 10 -3 0
-8 -4 -11 -10z"/>
<path d="M1167 929 c-4 -15 -2 -18 7 -10 9 7 20 6 37 -6 13 -9 21 -13 17 -8
-4 4 -3 13 2 20 6 8 6 12 -3 13 -6 0 -22 3 -34 5 -15 4 -23 0 -26 -14z"/>
<path d="M1791 1726 c-15 -18 5 -34 22 -17 9 9 7 10 -8 5 -18 -7 -18 -6 -6 9
7 9 11 17 8 17 -2 0 -10 -6 -16 -14z"/>
<path d="M1850 1571 c0 -6 6 -11 13 -11 8 0 7 -4 -3 -10 -9 -6 -10 -10 -3 -10
19 0 24 17 8 30 -10 9 -15 9 -15 1z"/>
<path d="M1923 1375 c0 -8 6 -16 14 -19 11 -4 11 -1 3 14 -13 24 -17 25 -17 5z"/>
<path d="M2089 923 c-12 -14 -12 -16 0 -8 11 6 13 4 8 -8 -3 -9 1 -21 11 -29
11 -9 14 -10 8 0 -4 7 -2 12 4 12 7 0 5 7 -4 16 -9 8 -14 20 -11 25 10 15 -2
10 -16 -8z"/>
<path d="M2129 803 c-13 -16 -12 -17 4 -4 16 13 21 21 13 21 -2 0 -10 -8 -17
-17z"/>
<path d="M1105 690 c-3 -6 1 -7 9 -4 18 7 21 14 7 14 -6 0 -13 -4 -16 -10z"/>
<path d="M1650 2231 c14 -28 12 -36 -5 -21 -9 7 -15 8 -15 2 0 -14 28 -23 35
-12 6 10 -11 50 -21 50 -2 0 0 -9 6 -19z"/>
<path d="M1662 2168 c2 -6 10 -13 16 -14 7 -1 8 0 2 3 -5 2 -8 9 -4 14 3 5 0
9 -6 9 -7 0 -10 -5 -8 -12z"/>
<path d="M1710 2055 c0 -8 4 -15 8 -15 5 0 9 7 9 15 0 8 -4 15 -9 15 -4 0 -8
-7 -8 -15z"/>
<path d="M1776 1880 c6 -22 5 -23 -9 -12 -10 9 -17 10 -22 2 -4 -6 -1 -9 6 -8
6 2 14 -3 17 -11 3 -9 0 -11 -8 -6 -9 6 -11 4 -5 -5 6 -10 11 -9 22 5 8 13 13
14 13 5 0 -7 3 -11 6 -8 3 4 -2 19 -11 35 -15 26 -15 26 -9 3z"/>
<path d="M2070 1046 c0 -2 7 -7 16 -10 8 -3 12 -2 9 4 -6 10 -25 14 -25 6z"/>
<path d="M1299 679 c-11 -8 -10 -9 5 -7 12 2 21 -5 27 -22 9 -24 8 -24 -6 -6
-15 20 -15 20 -15 0 0 -16 7 -20 33 -20 29 0 33 3 31 23 -3 29 -12 43 -27 42
-9 0 -9 -2 1 -6 6 -2 12 -9 12 -15 0 -6 -10 -3 -23 5 -16 10 -28 12 -38 6z
m64 -36 c-3 -7 -9 -10 -14 -7 -14 8 -11 21 5 21 8 0 12 -6 9 -14z"/>
<path d="M1383 680 c2 -8 9 -14 15 -13 5 1 12 -7 15 -17 6 -22 -8 -28 -16 -7
-3 7 -6 5 -6 -5 -1 -13 6 -17 24 -16 16 2 21 6 15 12 -16 16 -12 21 16 23 19
1 23 -2 15 -10 -6 -6 -11 -16 -11 -21 0 -6 5 -4 10 4 6 10 10 11 10 3 0 -7 8
-13 18 -13 13 0 14 2 3 9 -9 6 -10 11 -2 15 6 4 11 4 11 -1 0 -4 5 -1 11 7 8
12 9 10 4 -9 -5 -17 -3 -22 6 -19 12 4 14 19 10 58 0 6 -10 1 -21 -10 l-21
-21 -26 21 c-17 13 -30 17 -37 11 -17 -14 -28 -14 -38 1 -8 10 -9 10 -5 -2z
m62 -10 c3 -5 1 -10 -4 -10 -6 0 -11 5 -11 10 0 6 2 10 4 10 3 0 8 -4 11 -10z"/>
<path d="M1480 676 c7 -7 13 -7 20 0 6 6 3 10 -10 10 -13 0 -16 -4 -10 -10z"/>
<path d="M1720 676 c7 -7 13 -7 20 0 6 6 3 10 -10 10 -13 0 -16 -4 -10 -10z"/>
</g>
</svg>
