<svg width="107" height="32" viewBox="0 0 107 32" fill="none" xmlns="http://www.w3.org/2000/svg">
  <path
    d="M24.718 21.77C24.8993 22.178 24.99 22.5407 24.99 22.858C24.99 23.4927 24.7293 24.0367 24.208 24.49C23.7093 24.9207 23.1313 25.136 22.474 25.136C22.0433 25.136 21.6353 25.0227 21.25 24.796C20.8647 24.5467 20.57 24.184 20.366 23.708L18.564 19.696H7.038L5.236 23.708C5.032 24.184 4.73733 24.5467 4.352 24.796C3.98933 25.0227 3.58133 25.136 3.128 25.136C2.47067 25.136 1.88133 24.9207 1.36 24.49C0.838667 24.0367 0.578 23.4927 0.578 22.858C0.578 22.5407 0.668667 22.178 0.85 21.77L10.03 2.492C10.2793 1.948 10.6533 1.54 11.152 1.268C11.6507 0.973333 12.1833 0.825999 12.75 0.825999C13.3393 0.825999 13.8833 0.973333 14.382 1.268C14.8807 1.56267 15.266 1.97066 15.538 2.492L24.718 21.77ZM8.84 15.684H16.762L12.818 6.844L8.84 15.684ZM38.2651 25.306C35.9078 25.306 33.8451 24.8073 32.0771 23.81C30.3091 22.8127 28.9491 21.3847 27.9971 19.526C27.0451 17.6673 26.5691 15.4913 26.5691 12.998C26.5691 10.5047 27.0451 8.34 27.9971 6.504C28.9491 4.64533 30.3091 3.21733 32.0771 2.22C33.8451 1.22267 35.9078 0.723998 38.2651 0.723998C41.2345 0.723998 43.7958 1.54 45.9491 3.172C46.2891 3.444 46.5271 3.716 46.6631 3.988C46.7991 4.26 46.8671 4.6 46.8671 5.008C46.8671 5.59733 46.6971 6.10733 46.3571 6.538C46.0398 6.946 45.6431 7.15 45.1671 7.15C44.8498 7.15 44.5665 7.116 44.3171 7.048C44.0905 6.95733 43.8298 6.81 43.5351 6.606C42.6285 6.01667 41.7898 5.59733 41.0191 5.348C40.2485 5.076 39.4211 4.94 38.5371 4.94C36.3611 4.94 34.7178 5.62 33.6071 6.98C32.5191 8.31733 31.9751 10.3233 31.9751 12.998C31.9751 18.3927 34.1625 21.09 38.5371 21.09C39.3758 21.09 40.1691 20.9653 40.9171 20.716C41.6651 20.444 42.5378 20.0133 43.5351 19.424C43.8751 19.22 44.1585 19.084 44.3851 19.016C44.6118 18.9253 44.8725 18.88 45.1671 18.88C45.6431 18.88 46.0398 19.0953 46.3571 19.526C46.6971 19.934 46.8671 20.4327 46.8671 21.022C46.8671 21.43 46.7878 21.7813 46.6291 22.076C46.4931 22.348 46.2665 22.6087 45.9491 22.858C43.7958 24.49 41.2345 25.306 38.2651 25.306ZM70.1941 27.72C70.5114 28.2187 70.6701 28.706 70.6701 29.182C70.6701 29.794 70.4094 30.304 69.8881 30.712C69.3894 31.12 68.8001 31.324 68.1201 31.324C67.6441 31.324 67.1907 31.2107 66.7601 30.984C66.3521 30.7573 66.0234 30.4287 65.7741 29.998L63.7341 26.598C63.4621 26.1447 63.0994 25.816 62.6461 25.612C62.1927 25.408 61.5807 25.306 60.8101 25.306C58.4301 25.306 56.3561 24.8073 54.5881 23.81C52.8427 22.79 51.4941 21.362 50.5421 19.526C49.5901 17.6673 49.1141 15.4913 49.1141 12.998C49.1141 10.5047 49.5901 8.34 50.5421 6.504C51.4941 4.64533 52.8427 3.21733 54.5881 2.22C56.3561 1.22267 58.4301 0.723998 60.8101 0.723998C63.1901 0.723998 65.2527 1.22267 66.9981 2.22C68.7661 3.21733 70.1261 4.64533 71.0781 6.504C72.0301 8.34 72.5061 10.5047 72.5061 12.998C72.5061 15.6047 71.9847 17.86 70.9421 19.764C69.9221 21.6453 68.4601 23.0507 66.5561 23.98C67.6667 24.32 68.5621 25.0453 69.2421 26.156L70.1941 27.72ZM60.8101 21.192C62.8047 21.192 64.3687 20.4893 65.5021 19.084C66.6581 17.6787 67.2361 15.65 67.2361 12.998C67.2361 10.346 66.6694 8.32867 65.5361 6.946C64.4027 5.54067 62.8274 4.838 60.8101 4.838C58.7927 4.838 57.2174 5.54067 56.0841 6.946C54.9734 8.32867 54.4181 10.346 54.4181 12.998C54.4181 15.65 54.9847 17.6787 56.1181 19.084C57.2514 20.4893 58.8154 21.192 60.8101 21.192Z"
    fill="#CCE2F2" />
  <path
    d="M86.7218 25.306C83.3671 25.306 80.8058 24.4447 79.0378 22.722C77.2924 20.9767 76.4198 18.438 76.4198 15.106V3.478C76.4198 2.68467 76.6578 2.05 77.1338 1.574C77.6098 1.098 78.2444 0.859999 79.0378 0.859999C79.8311 0.859999 80.4544 1.098 80.9078 1.574C81.3838 2.05 81.6218 2.68467 81.6218 3.478V15.344C81.6218 17.248 82.0524 18.6987 82.9138 19.696C83.7978 20.6933 85.0671 21.192 86.7218 21.192C88.3764 21.192 89.6458 20.6933 90.5298 19.696C91.4138 18.676 91.8558 17.2253 91.8558 15.344V3.478C91.8558 2.68467 92.0824 2.05 92.5358 1.574C93.0118 1.098 93.6464 0.859999 94.4398 0.859999C95.2331 0.859999 95.8678 1.098 96.3438 1.574C96.8198 2.05 97.0578 2.68467 97.0578 3.478V15.106C97.0578 18.4153 96.1738 20.9427 94.4058 22.688C92.6378 24.4333 90.0764 25.306 86.7218 25.306ZM104.343 25.204C103.527 25.204 102.881 24.966 102.405 24.49C101.929 24.014 101.691 23.368 101.691 22.552V3.478C101.691 2.68467 101.929 2.05 102.405 1.574C102.881 1.098 103.527 0.859999 104.343 0.859999C105.159 0.859999 105.805 1.098 106.281 1.574C106.757 2.05 106.995 2.68467 106.995 3.478V22.552C106.995 23.368 106.757 24.014 106.281 24.49C105.805 24.966 105.159 25.204 104.343 25.204Z"
    fill="#E34E20" />
</svg>