<svg xmlns="http://www.w3.org/2000/svg" xmlns:xlink="http://www.w3.org/1999/xlink" viewBox="24.3 109.96 326.24 155.25"
  version="1.2">
  <defs>
    <clipPath id="c">
      <path d="M.67969 1H208v124H.67969Zm0 0" />
    </clipPath>
    <clipPath id="d">
      <path d="M5 6h208.32031v124H5Zm0 0" />
    </clipPath>
    <clipPath id="b">
      <path d="M0 0h214v131H0z" />
    </clipPath>
    <clipPath id="h">
      <path d="M3 4h77v118.8789H3Zm0 0" />
    </clipPath>
    <clipPath id="i">
      <path d="M.1211.23828H77V120H.1211Zm0 0" />
    </clipPath>
    <clipPath id="j">
      <path d="M.1211.23828H78V121H.1211Zm0 0" />
    </clipPath>
    <clipPath id="g">
      <path d="M0 0h81v123H0z" />
    </clipPath>
    <filter xmlns:xlink="http://www.w3.org/1999/xlink" x="0%" y="0%" width="100%" xlink:type="simple"
      filterUnits="objectBoundingBox" xlink:actuate="onLoad" id="e" height="100%" xlink:show="other">
      <feColorMatrix values="0 0 0 0 1 0 0 0 0 1 0 0 0 0 1 0 0 0 1 0" in="SourceGraphic" />
    </filter>
  </defs>
  <path style="stroke:none;fill-rule:nonzero;fill:#090920;fill-opacity:1"
    d="M24.30469 109.96094h326.24219v155.25H24.30467Zm0 0" />
  <g mask="url(#a)" transform="translate(121 121)">
    <g clip-path="url(#b)">
      <g clip-path="url(#c)">
        <path style="stroke:none;fill-rule:nonzero;fill:#e34e20;fill-opacity:1"
          d="M207.21484 124.04688H.8672V1.71094h206.34765Zm0 0" />
      </g>
      <path style="stroke:none;fill-rule:nonzero;fill:#cce2f2;fill-opacity:1"
        d="M212.32813 129.17969H5.98438V6.84375h206.34375Zm0 0" />
      <g clip-path="url(#d)">
        <path style="stroke:none;fill-rule:nonzero;fill:#1e2e5f;fill-opacity:1"
          d="M5.21094 6.0625h207.89453v123.89844H5.21094Zm206.34375 1.5586H6.76172v120.78124h204.79297Zm0 0" />
      </g>
    </g>
    <mask id="a">
      <g filter="url(#e)">
        <path style="fill:#000;fill-opacity:.0471;stroke:none" d="M0 0h375v374.99999H0z" />
      </g>
    </mask>
  </g>
  <g mask="url(#f)" transform="translate(45 126)">
    <g clip-path="url(#g)">
      <g clip-path="url(#h)">
        <path style="stroke:none;fill-rule:nonzero;fill:#cce2f2;fill-opacity:1"
          d="M3.80469 4.00781h75.96094v118.70313H3.80469Zm0 0" />
      </g>
      <g clip-path="url(#i)">
        <path style="stroke:none;fill-rule:nonzero;fill:#e34e20;fill-opacity:1"
          d="M.73438.92578h75.96484V119.625H.73438Zm0 0" />
      </g>
      <g clip-path="url(#j)">
        <path style="stroke:none;fill-rule:nonzero;fill:#1e2e5f;fill-opacity:1"
          d="M77.16406 120.09375H.26953V.46094h76.89453Zm-75.96484-.9336h75.03516V1.39454H1.19921Zm0 0" />
      </g>
    </g>
    <mask id="f">
      <g filter="url(#e)">
        <path style="fill:#000;fill-opacity:.098;stroke:none" d="M0 0h375v374.99999H0z" />
      </g>
    </mask>
  </g>
  <g style="fill:#e68161;fill-opacity:.302">
    <path style="stroke:none" d="M11.70313-3h36.8125L27.3125-61.3125 5 0H1.79687L27.3125-70.125 52.8125 0H11.70312Zm0 0"
      transform="translate(63.55046 225.01281)" />
  </g>
  <g style="fill:#e68161;fill-opacity:.502">
    <path style="stroke:none" d="M11.70313-3h36.8125L27.3125-61.3125 5 0H1.79687L27.3125-70.125 52.8125 0H11.70312Zm0 0"
      transform="translate(59.0908 220.63031)" />
  </g>
  <g style="fill:#e34e20;fill-opacity:1">
    <path style="stroke:none" d="M11.70313-3h36.8125L27.3125-61.3125 5 0H1.79687L27.3125-70.125 52.8125 0H11.70312Zm0 0"
      transform="translate(54.63113 216.24781)" />
  </g>
  <g style="fill:#fff;fill-opacity:1">
    <path style="stroke:none"
      d="M53.29688-12.79688C51.49218-8.39843 48.95703-5 45.6875-2.59375 42.42578-.19531 37.53125 1 31 1c-8.19922 0-14.13281-2.51563-17.79688-7.54688-3.66796-5.03125-5.5-12.8789-5.5-23.54687v-9.79688c0-10.66406 1.83204-18.51562 5.5-23.54687C16.8672-68.46875 22.80078-70.98438 31-70.98438c6.53125 0 11.42578 1.19922 14.6875 3.59376 3.26953 2.39843 5.80469 5.79687 7.60938 10.20312l-2.70313 1.29688c-1.53125-3.86329-3.69922-6.84376-6.5-8.9375C41.28906-66.9297 36.92578-67.98439 31-67.98439c-3.27344 0-6.07422.41797-8.40625 1.25-2.33594.83594-4.4336 2.25-6.29688 4.25-1.86718 2-3.26562 4.88672-4.20312 8.65626-.92969 3.76171-1.39063 8.40624-1.39063 13.9375v9.79687c0 5.53125.46094 10.1836 1.39063 13.95313C13.03125-12.37891 14.42969-9.5 16.29688-7.5c1.86328 2 3.96093 3.41797 6.29687 4.25C24.92578-2.41406 27.72656-2 31-2c5.92578 0 10.28906-1.04688 13.09375-3.14063 2.80078-2.10156 4.96875-5.08593 6.5-8.95312Zm0 0"
      transform="translate(125.03947 219.56253)" />
  </g>
  <g style="fill:#fff;fill-opacity:1">
    <path style="stroke:none"
      d="M54.29688-30.09375c0 13-2.8047 21.86719-8.40626 26.59375L44-5.79688c4.86328-4.1328 7.29688-12.23437 7.29688-24.29687v-9.79688c0-5.53124-.46876-10.17578-1.40626-13.9375-.92968-3.76953-2.32812-6.65624-4.20312-8.65624-1.86719-2-3.96484-3.41407-6.29688-4.25-2.33593-.83204-5.13671-1.25-8.40624-1.25-3.26172 0-6.0586.41796-8.39063 1.25-2.33594.83593-4.4336 2.25-6.29688 4.25-1.86718 2-3.26562 4.88671-4.20312 8.65624-.92969 3.76172-1.39063 8.40626-1.39063 13.9375v9.79688c0 5.53125.46094 10.1836 1.39063 13.95313C13.03125-12.37891 14.42969-9.5 16.29688-7.5c1.86328 2 3.96093 3.41797 6.29687 4.25C24.92578-2.41406 27.72656-2 31-2c0 7.39453 1.17969 12.41016 3.54688 15.04688C36.91016 15.67967 40.59374 17 45.59374 17v3c-5.39844 0-9.5625-1.33594-12.5-4-2.92969-2.66797-4.59375-7.69922-5-15.09375-7.13672-.60547-12.32031-3.42188-15.54688-8.45313-3.23046-5.03125-4.84375-12.54687-4.84375-22.54687v-9.79688c0-10.66406 1.83204-18.51562 5.5-23.54687C16.8672-68.46875 22.80078-70.98438 31-70.98438c8.19531 0 14.1289 2.51563 17.79688 7.54688 3.66406 5.03125 5.5 12.88281 5.5 23.54688Zm0 0"
      transform="translate(183.72345 219.56253)" />
  </g>
  <g style="fill:#fff;fill-opacity:1">
    <path style="stroke:none"
      d="M17.29688-69.98438h38.29687v39.89063c0 10.66797-1.83594 18.51563-5.5 23.54688C46.42578-1.51563 40.49219 1 32.29687 1 24.09766 1 18.16408-1.51563 14.5-6.54688 10.83203-11.57813 9-19.42578 9-30.09374v-39.89063h3v39.89063c0 5.53125.46094 10.1836 1.39063 13.95313C14.32813-12.37891 15.72655-9.5 17.59374-7.5c1.86328 2 3.96094 3.41797 6.29688 4.25 2.33203.83594 5.1289 1.25 8.39062 1.25 3.26953 0 6.07031-.41406 8.40625-1.25 2.33203-.83203 4.42969-2.25 6.29688-4.25 1.875-2 3.27343-4.8789 4.20312-8.64063.9375-3.76953 1.40625-8.42187 1.40625-13.95312v-36.89063H17.29687Zm0 0"
      transform="translate(246.00645 219.56253)" />
  </g>
  <g style="fill:#fff;fill-opacity:1">
    <path style="stroke:none" d="M12.89063 0H9.90625v-69.98438h2.98438Zm0 0"
      transform="translate(310.58883 219.56253)" />
  </g>
</svg>