<svg width="418" height="341" viewBox="0 0 418 341" fill="none" xmlns="http://www.w3.org/2000/svg">
  <rect width="418" height="341" fill="#2F2F2F" />
  <path
    d="M166.896 181.44C167.152 182.016 167.28 182.528 167.28 182.976C167.28 183.872 166.912 184.64 166.176 185.28C165.472 185.888 164.656 186.192 163.728 186.192C163.12 186.192 162.544 186.032 162 185.712C161.456 185.36 161.04 184.848 160.752 184.176L158.208 178.512H141.936L139.392 184.176C139.104 184.848 138.688 185.36 138.144 185.712C137.632 186.032 137.056 186.192 136.416 186.192C135.488 186.192 134.656 185.888 133.92 185.28C133.184 184.64 132.816 183.872 132.816 182.976C132.816 182.528 132.944 182.016 133.2 181.44L146.16 154.224C146.512 153.456 147.04 152.88 147.744 152.496C148.448 152.08 149.2 151.872 150 151.872C150.832 151.872 151.6 152.08 152.304 152.496C153.008 152.912 153.552 153.488 153.936 154.224L166.896 181.44ZM144.48 172.848H155.664L150.096 160.368L144.48 172.848ZM186.021 186.432C182.693 186.432 179.781 185.728 177.285 184.32C174.789 182.912 172.869 180.896 171.525 178.272C170.181 175.648 169.509 172.576 169.509 169.056C169.509 165.536 170.181 162.48 171.525 159.888C172.869 157.264 174.789 155.248 177.285 153.84C179.781 152.432 182.693 151.728 186.021 151.728C190.213 151.728 193.829 152.88 196.869 155.184C197.349 155.568 197.685 155.952 197.877 156.336C198.069 156.72 198.165 157.2 198.165 157.776C198.165 158.608 197.925 159.328 197.445 159.936C196.997 160.512 196.437 160.8 195.765 160.8C195.317 160.8 194.917 160.752 194.565 160.656C194.245 160.528 193.877 160.32 193.461 160.032C192.181 159.2 190.997 158.608 189.909 158.256C188.821 157.872 187.653 157.68 186.405 157.68C183.333 157.68 181.013 158.64 179.445 160.56C177.909 162.448 177.141 165.28 177.141 169.056C177.141 176.672 180.229 180.48 186.405 180.48C187.589 180.48 188.709 180.304 189.765 179.952C190.821 179.568 192.053 178.96 193.461 178.128C193.941 177.84 194.341 177.648 194.661 177.552C194.981 177.424 195.349 177.36 195.765 177.36C196.437 177.36 196.997 177.664 197.445 178.272C197.925 178.848 198.165 179.552 198.165 180.384C198.165 180.96 198.053 181.456 197.829 181.872C197.637 182.256 197.317 182.624 196.869 182.976C193.829 185.28 190.213 186.432 186.021 186.432ZM231.098 189.84C231.546 190.544 231.77 191.232 231.77 191.904C231.77 192.768 231.402 193.488 230.666 194.064C229.962 194.64 229.13 194.928 228.17 194.928C227.498 194.928 226.858 194.768 226.25 194.448C225.674 194.128 225.21 193.664 224.858 193.056L221.978 188.256C221.594 187.616 221.082 187.152 220.442 186.864C219.802 186.576 218.938 186.432 217.85 186.432C214.49 186.432 211.562 185.728 209.066 184.32C206.602 182.88 204.698 180.864 203.354 178.272C202.01 175.648 201.338 172.576 201.338 169.056C201.338 165.536 202.01 162.48 203.354 159.888C204.698 157.264 206.602 155.248 209.066 153.84C211.562 152.432 214.49 151.728 217.85 151.728C221.21 151.728 224.122 152.432 226.586 153.84C229.082 155.248 231.002 157.264 232.346 159.888C233.69 162.48 234.362 165.536 234.362 169.056C234.362 172.736 233.626 175.92 232.154 178.608C230.714 181.264 228.65 183.248 225.962 184.56C227.53 185.04 228.794 186.064 229.754 187.632L231.098 189.84ZM217.85 180.624C220.666 180.624 222.874 179.632 224.474 177.648C226.106 175.664 226.922 172.8 226.922 169.056C226.922 165.312 226.122 162.464 224.522 160.512C222.922 158.528 220.698 157.536 217.85 157.536C215.002 157.536 212.778 158.528 211.178 160.512C209.61 162.464 208.826 165.312 208.826 169.056C208.826 172.8 209.626 175.664 211.226 177.648C212.826 179.632 215.034 180.624 217.85 180.624Z"
    fill="#CCE2F2" />
  <path
    d="M254.431 186.432C249.695 186.432 246.079 185.216 243.583 182.784C241.119 180.32 239.887 176.736 239.887 172.032V155.616C239.887 154.496 240.223 153.6 240.895 152.928C241.567 152.256 242.463 151.92 243.583 151.92C244.703 151.92 245.583 152.256 246.223 152.928C246.895 153.6 247.231 154.496 247.231 155.616V172.368C247.231 175.056 247.839 177.104 249.055 178.512C250.303 179.92 252.095 180.624 254.431 180.624C256.767 180.624 258.559 179.92 259.807 178.512C261.055 177.072 261.679 175.024 261.679 172.368V155.616C261.679 154.496 261.999 153.6 262.639 152.928C263.311 152.256 264.207 151.92 265.327 151.92C266.447 151.92 267.343 152.256 268.015 152.928C268.687 153.6 269.023 154.496 269.023 155.616V172.032C269.023 176.704 267.775 180.272 265.279 182.736C262.783 185.2 259.167 186.432 254.431 186.432ZM279.307 186.288C278.155 186.288 277.243 185.952 276.571 185.28C275.899 184.608 275.563 183.696 275.563 182.544V155.616C275.563 154.496 275.899 153.6 276.571 152.928C277.243 152.256 278.155 151.92 279.307 151.92C280.459 151.92 281.371 152.256 282.043 152.928C282.715 153.6 283.051 154.496 283.051 155.616V182.544C283.051 183.696 282.715 184.608 282.043 185.28C281.371 185.952 280.459 186.288 279.307 186.288Z"
    fill="#E34E20" />
</svg>